<svg xmlns="http://www.w3.org/2000/svg" width="24" height="21.113" viewBox="0 0 24 21.113">
  <g transform="translate(-4164.5 3030)">
    <path id="合体_5" data-name="合体 5" d="M10.586,20.527,2.058,12A7.029,7.029,0,0,1,12,2.059,7.029,7.029,0,0,1,21.941,12l-8.528,8.528a2,2,0,0,1-2.828,0Z" transform="translate(4164.5 -3030)" fill="#fff"/>
    <path id="合体_5_-_アウトライン" data-name="合体 5 - アウトライン" d="M12,19.112l8.527-8.527a5.029,5.029,0,1,0-7.113-7.112L12,4.888,10.585,3.473a5.029,5.029,0,1,0-7.113,7.112L12,19.112h0m0,2a2,2,0,0,1-1.414-.585L2.058,12A7.029,7.029,0,1,1,12,2.059,7.029,7.029,0,0,1,21.941,12l-8.527,8.528A1.993,1.993,0,0,1,12,21.112Z" transform="translate(4164.5 -3030)" fill="#fff"/>
  </g>
</svg>
